<svg width="24" height="18" viewBox="0 0 24 18" fill="none" xmlns="http://www.w3.org/2000/svg">
<path d="M23.734 5.76686L17.2637 0.557613C17.0026 0.347285 16.6303 0.347379 16.3691 0.557613L15.5458 1.22038L19.8125 4.6556C20.3196 5.06383 20.6105 5.67137 20.6105 6.32247V16.8869C20.6105 17.137 20.567 17.377 20.4878 17.6003H23.2867C23.6806 17.6003 24 17.2809 24 16.8869V6.32251C23.9999 6.10656 23.9021 5.90223 23.734 5.76686Z" fill="#265A92"/>
<path d="M18.9178 5.76686L12.4476 0.557613C12.1864 0.347285 11.814 0.347379 11.5529 0.557613L10.7296 1.22042L14.9963 4.6556C15.5035 5.06392 15.7943 5.67147 15.7943 6.32251V16.887C15.7943 17.137 15.7508 17.377 15.6717 17.6003H18.4705C18.8644 17.6003 19.1838 17.2809 19.1838 16.887V6.32251C19.1837 6.10656 19.0859 5.90228 18.9178 5.76686Z" fill="#265A92"/>
<path d="M14.1017 5.76686L7.63145 0.557613C7.37027 0.347285 6.99799 0.347379 6.7368 0.557613L0.266015 5.76686C0.0978277 5.90223 0 6.10656 0 6.32251V16.887C0 17.2809 0.319405 17.6003 0.713341 17.6003H5.15595C5.54988 17.6003 5.86929 17.2809 5.86929 16.887V13.7038C5.86929 12.979 6.45897 12.3893 7.1838 12.3893C7.90863 12.3893 8.49836 12.979 8.49836 13.7038V16.887C8.49836 17.2809 8.81776 17.6003 9.2117 17.6003H9.59209H10.3456H13.6543C14.0482 17.6003 14.3676 17.2809 14.3676 16.887V6.32251C14.3677 6.10656 14.2699 5.90228 14.1017 5.76686Z" fill="#265A92"/>
</svg>
