<svg width="24" height="24" viewBox="0 0 24 24" fill="none" xmlns="http://www.w3.org/2000/svg">
<path d="M8.75 18.3777V23.2173C8.75 23.5554 8.958 23.8549 9.266 23.9613C9.343 23.9874 9.422 23.9999 9.5 23.9999C9.734 23.9999 9.96 23.8851 10.104 23.6806L12.817 19.8281L8.75 18.3777Z" fill="#265A92"/>
<path d="M23.685 0.145135C23.455 -0.0249509 23.153 -0.0479073 22.903 0.0887878L0.403043 12.3496C0.137044 12.4947 -0.0199555 12.791 0.00204447 13.103C0.0250444 13.416 0.224044 13.6832 0.507043 13.7844L6.76202 16.0153L20.083 4.13016L9.77501 17.0891L20.258 20.8278C20.336 20.855 20.418 20.8696 20.5 20.8696C20.636 20.8696 20.771 20.831 20.89 20.7558C21.08 20.6348 21.209 20.4313 21.242 20.2028L23.992 0.898524C24.033 0.606351 23.915 0.316265 23.685 0.145135V0.145135Z" fill="#265A92"/>
</svg>
