<svg width="38" height="38" viewBox="0 0 38 38" fill="none" xmlns="http://www.w3.org/2000/svg">
<path fill-rule="evenodd" clip-rule="evenodd" d="M22.6642 0.4076L32.164 9.90738C32.2965 10.0269 32.4015 10.1737 32.4718 10.3377C32.5421 10.5017 32.576 10.679 32.5711 10.8574V21.7142H29.8569V13.5716H21.7142C20.995 13.5695 20.3058 13.2829 19.7973 12.7743C19.2887 12.2657 19.0021 11.5766 19 10.8574V2.71469H8.14309V19H5.42887V2.71469C5.43094 1.99547 5.71757 1.3063 6.22614 0.797738C6.73471 0.289172 7.42387 0.00254318 8.14309 0.000466471H21.7142C21.8926 -0.00444081 22.0699 0.0294198 22.2339 0.0997109C22.3979 0.170002 22.5447 0.275049 22.6642 0.4076ZM21.7142 3.25753V10.8574H29.314L21.7142 3.25753ZM2.71465 27.1431V24.4289H13.5715V35.2858H10.8573V29.0621L1.91938 38L0.000427246 36.0811L8.93836 27.1431H2.71465ZM30.6576 36.0729L34.1589 32.5715L30.644 29.0566L32.5711 27.1431L37.9995 32.5715L32.5711 38L30.6576 36.0729ZM22.8406 32.5715L26.342 29.0702L24.4284 27.1431L19 32.5715L24.4284 38L26.3555 36.0865L22.8406 32.5715Z" fill="#265A92"/>
</svg>
