<svg width="40" height="40" viewBox="0 0 40 40" fill="none" xmlns="http://www.w3.org/2000/svg">
<path fill-rule="evenodd" clip-rule="evenodd" d="M28.8692 14.5714L34.2978 6.42857H39V3.71428H32.8451L27.4165 11.8571H22.7143V1H20V17.2857C20 18.0056 20.286 18.696 20.795 19.205C21.304 19.714 21.9944 20 22.7143 20H39V17.2857H22.7143V14.5714H28.8692ZM5.22208 21.601C6.78435 20.5572 8.62108 20 10.5 20C13.0187 20.0028 15.4334 21.0046 17.2144 22.7856C18.9954 24.5666 19.9972 26.9813 20 29.5C20 31.3789 19.4428 33.2156 18.399 34.7779C17.3551 36.3402 15.8714 37.5578 14.1355 38.2768C12.3996 38.9959 10.4895 39.184 8.64664 38.8175C6.80382 38.4509 5.11109 37.5461 3.78249 36.2175C2.45389 34.8889 1.5491 33.1962 1.18254 31.3534C0.815985 29.5105 1.00412 27.6004 1.72315 25.8645C2.44218 24.1286 3.65982 22.6449 5.22208 21.601ZM11.8571 28.1429H17.1485C16.88 26.8403 16.2358 25.645 15.2954 24.7046C14.355 23.7642 13.1597 23.12 11.8571 22.8515V28.1429ZM5.94963 34.5334C7.19692 35.6611 8.81849 36.2856 10.5 36.2857C12.0635 36.2836 13.5785 35.7425 14.7896 34.7537C16.0007 33.7648 16.8338 32.3886 17.1485 30.8571H11.8571C11.1373 30.8571 10.4469 30.5712 9.93785 30.0621C9.42883 29.5531 9.14286 28.8627 9.14286 28.1429V22.8515C7.49535 23.1879 6.03143 24.1241 5.03489 25.4785C4.03835 26.8329 3.58017 28.509 3.74918 30.182C3.91819 31.855 4.70234 33.4057 5.94963 34.5334ZM30.8571 22.7143H33.5714V39H30.8571V22.7143ZM36.2857 28.1428H39V39H36.2857V28.1428ZM28.1428 33.5714H25.4285V39H28.1428V33.5714ZM14.5714 7.7857C14.5714 8.53523 13.9638 9.14284 13.2143 9.14284C12.4648 9.14284 11.8571 8.53523 11.8571 7.7857C11.8571 7.03617 12.4648 6.42855 13.2143 6.42855C13.9638 6.42855 14.5714 7.03617 14.5714 7.7857ZM10.5 14.5714C11.2495 14.5714 11.8571 13.9638 11.8571 13.2143C11.8571 12.4648 11.2495 11.8571 10.5 11.8571C9.75046 11.8571 9.14285 12.4648 9.14285 13.2143C9.14285 13.9638 9.75046 14.5714 10.5 14.5714ZM9.14285 5.07145C9.14285 5.82098 8.53524 6.42859 7.78571 6.42859C7.03618 6.42859 6.42857 5.82098 6.42857 5.07145C6.42857 4.32192 7.03618 3.71431 7.78571 3.71431C8.53524 3.71431 9.14285 4.32192 9.14285 5.07145ZM5.07142 11.8571C5.82095 11.8571 6.42856 11.2495 6.42856 10.5C6.42856 9.75047 5.82095 9.14286 5.07142 9.14286C4.32189 9.14286 3.71428 9.75047 3.71428 10.5C3.71428 11.2495 4.32189 11.8571 5.07142 11.8571ZM3.71428 15.9286C3.71428 16.6781 3.10667 17.2857 2.35714 17.2857C1.60761 17.2857 1 16.6781 1 15.9286C1 15.1791 1.60761 14.5714 2.35714 14.5714C3.10667 14.5714 3.71428 15.1791 3.71428 15.9286Z" fill="#265A92"/>
</svg>
