<svg width="39" height="39" viewBox="0 0 39 39" fill="none" xmlns="http://www.w3.org/2000/svg">
<path d="M36.2143 29.25V34.2446L29.25 27.2804V18.1071C29.25 17.8485 29.178 17.5949 29.0421 17.3748C28.9061 17.1548 28.7115 16.9769 28.4802 16.8612L20.8929 13.0675V5.332L24.4946 8.93392L26.4643 6.96429L19.5 0L12.5357 6.96429L14.5054 8.93392L18.1071 5.332V13.0675L10.5198 16.8612C10.2885 16.9769 10.0939 17.1548 9.95794 17.3748C9.82197 17.5949 9.74997 17.8485 9.75 18.1071V27.2804L2.78571 34.2446V29.25H0V39H9.75V36.2143H4.75535L11.4177 29.552L18.877 33.2816C19.0704 33.3783 19.2837 33.4286 19.5 33.4286C19.7163 33.4286 19.9296 33.3783 20.123 33.2816L27.5823 29.552L34.2446 36.2143H29.25V39H39V29.25H36.2143ZM18.1071 29.7818L12.5357 26.9961V20.3611L18.1071 23.1468V29.7818ZM19.5 20.7282L14.2577 18.1071L19.5 15.4861L24.7423 18.1071L19.5 20.7282ZM26.4643 26.9961L20.8929 29.7818V23.1468L26.4643 20.3611V26.9961Z" fill="#265A92"/>
</svg>
