<svg width="38" height="38" viewBox="0 0 38 38" fill="none" xmlns="http://www.w3.org/2000/svg">
<path d="M33.9286 27.32V21.7026C33.9286 20.9831 33.6426 20.2931 33.1336 19.7843C32.6245 19.2756 31.9342 18.9898 31.2143 18.9898H20.3571V13.5641H23.0714C23.791 13.5633 24.481 13.2772 24.9898 12.7686C25.4987 12.2601 25.7849 11.5705 25.7857 10.8513V2.71282C25.7849 1.99359 25.4987 1.30405 24.9898 0.79548C24.481 0.286905 23.791 0.000825694 23.0714 0H14.9286C14.2089 0.000718189 13.519 0.286763 13.0101 0.795361C12.5012 1.30396 12.215 1.99356 12.2143 2.71282V10.8513C12.215 11.5706 12.5012 12.2602 13.0101 12.7688C13.519 13.2774 14.2089 13.5634 14.9286 13.5641H17.6429V18.9898H6.78572C6.06585 18.9898 5.37546 19.2756 4.86643 19.7843C4.35741 20.2931 4.07144 20.9831 4.07144 21.7026V27.321C2.79212 27.6511 1.67718 28.4363 0.935624 29.5292C0.194065 30.6222 -0.123206 31.948 0.0432806 33.258C0.209767 34.568 0.848582 35.7724 1.83998 36.6454C2.83138 37.5184 4.1073 38 5.42858 38C6.74986 38 8.02578 37.5184 9.01718 36.6454C10.0086 35.7724 10.6474 34.568 10.8139 33.258C10.9804 31.948 10.6631 30.6222 9.92154 29.5292C9.17998 28.4363 8.06504 27.6511 6.78572 27.321V21.7026H17.6429V27.3209C16.3635 27.651 15.2486 28.4361 14.507 29.5291C13.7655 30.6221 13.4482 31.9478 13.6147 33.2579C13.7812 34.5679 14.42 35.7723 15.4114 36.6453C16.4028 37.5182 17.6787 37.9999 19 37.9999C20.3213 37.9999 21.5972 37.5182 22.5886 36.6453C23.58 35.7723 24.2188 34.5679 24.3853 33.2579C24.5518 31.9478 24.2345 30.6221 23.493 29.5291C22.7514 28.4361 21.6365 27.651 20.3571 27.3209V21.7026H31.2143V27.32C29.935 27.6502 28.82 28.4353 28.0785 29.5283C27.3369 30.6213 27.0196 31.947 27.1861 33.2571C27.3526 34.5671 27.9914 35.7715 28.9828 36.6445C29.9742 37.5174 31.2501 37.9991 32.5714 37.9991C33.8927 37.9991 35.1686 37.5174 36.16 36.6445C37.1514 35.7715 37.7902 34.5671 37.9567 33.2571C38.1232 31.947 37.8059 30.6213 37.0644 29.5283C36.3228 28.4353 35.2079 27.6502 33.9286 27.32ZM14.9286 2.71282H23.0714L23.0728 10.8513H14.9286V2.71282ZM8.14287 32.5539C8.14287 33.0904 7.98367 33.6149 7.68543 34.0611C7.38718 34.5072 6.96326 34.8549 6.46729 35.0602C5.97132 35.2655 5.42557 35.3193 4.89905 35.2146C4.37253 35.1099 3.88889 34.8515 3.50929 34.4721C3.12969 34.0928 2.87118 33.6094 2.76645 33.0831C2.66172 32.5569 2.71547 32.0114 2.92091 31.5157C3.12635 31.02 3.47424 30.5963 3.92061 30.2983C4.36697 30.0002 4.89175 29.8411 5.42858 29.8411C6.1482 29.8419 6.83811 30.128 7.34696 30.6365C7.8558 31.1451 8.14204 31.8347 8.14287 32.5539ZM21.7143 32.5539C21.7143 33.0904 21.5551 33.6149 21.2568 34.0611C20.9586 34.5072 20.5347 34.8549 20.0387 35.0602C19.5427 35.2655 18.997 35.3193 18.4705 35.2146C17.944 35.1099 17.4603 34.8515 17.0807 34.4721C16.7011 34.0928 16.4426 33.6094 16.3379 33.0831C16.2331 32.5569 16.2869 32.0114 16.4923 31.5157C16.6978 31.02 17.0457 30.5963 17.492 30.2983C17.9384 30.0002 18.4632 29.8411 19 29.8411C19.7196 29.842 20.4094 30.1282 20.9182 30.6367C21.427 31.1452 21.7133 31.8347 21.7143 32.5539ZM32.5714 35.2667C32.0346 35.2667 31.5098 35.1076 31.0634 34.8095C30.6171 34.5114 30.2692 34.0877 30.0637 33.592C29.8583 33.0963 29.8046 32.5509 29.9093 32.0246C30.014 31.4984 30.2725 31.015 30.6521 30.6356C31.0317 30.2562 31.5154 29.9979 32.0419 29.8932C32.5684 29.7885 33.1142 29.8422 33.6101 30.0476C34.1061 30.2529 34.53 30.6006 34.8283 31.0467C35.1265 31.4928 35.2857 32.0173 35.2857 32.5539C35.2849 33.2731 34.9986 33.9627 34.4898 34.4712C33.9809 34.9798 33.291 35.2659 32.5714 35.2667Z" fill="#265A92"/>
</svg>
