<svg width="34" height="40" viewBox="0 0 34 40" fill="none" xmlns="http://www.w3.org/2000/svg">
<path fill-rule="evenodd" clip-rule="evenodd" d="M30.9006 24.0185H33.9381V8.83097C33.938 8.56226 33.8667 8.29837 33.7313 8.06624C33.596 7.83411 33.4014 7.64205 33.1676 7.50965L20.2582 0.196842C20.0299 0.0678088 19.7721 0 19.5099 0C19.2477 0 18.9899 0.0678088 18.7616 0.196842L5.85217 7.50965L7.34875 10.1523L19.5099 3.26397L30.9006 9.71641V24.0185ZM12.5216 39.8203C12.7295 39.938 12.9642 39.9999 13.2031 40.0001C13.442 40 13.6768 39.9381 13.8847 39.8204L25.6426 33.1599C25.8555 33.0393 26.0327 32.8644 26.156 32.653C26.2793 32.4415 26.3443 32.2012 26.3443 31.9564V18.1236C26.3443 17.8789 26.2793 17.6385 26.156 17.4271C26.0327 17.2157 25.8555 17.0408 25.6426 16.9202L13.8847 10.2597C13.6767 10.1422 13.442 10.0804 13.2031 10.0804C12.9643 10.0804 12.7295 10.1422 12.5216 10.2597L0.763689 16.9202C0.550715 17.0408 0.373546 17.2157 0.250263 17.4271C0.126981 17.6385 0.0619994 17.8789 0.0619507 18.1236V31.9564C0.0620239 32.2012 0.127017 32.4415 0.250298 32.6529C0.373579 32.8643 0.550735 33.0392 0.763689 33.1598L12.5216 39.8203ZM13.2031 37.0269L2.82851 31.15V18.9301L13.2031 13.0532L23.5777 18.9301V31.15L13.2031 37.0269Z" fill="#265A92"/>
</svg>
